<svg width="56" height="56" viewBox="0 0 56 56" fill="none" xmlns="http://www.w3.org/2000/svg">
<rect width="56" height="56" rx="28" fill="black"/>
<path d="M9.64173 21.9704L5 13.9307H27.9586C33.5711 13.9307 38.4161 17.217 40.6742 21.9704H9.64173Z" fill="url(#paint0_linear)"/>
<path d="M15.444 32.0201L10.8022 23.9805H41.4456C41.8247 25.2542 42.0281 26.6035 42.0281 28.0003C42.0281 29.3971 41.8247 30.7465 41.4456 32.0201H15.444Z" fill="url(#paint1_linear)"/>
<path d="M21.2456 42.0698L16.604 34.03H40.6739C38.4158 38.7834 33.5708 42.0698 27.9583 42.0698H21.2456Z" fill="url(#paint2_linear)"/>
<path d="M41.8486 26.6604H49.2183C50.3961 26.6604 51.3964 27.4202 51.7559 28.4763C51.9124 28.9361 51.5045 29.3403 51.0189 29.3403H41.8486V26.6604Z" fill="white"/>
<defs>
<linearGradient id="paint0_linear" x1="40.5087" y1="17.9505" x2="5" y2="17.9505" gradientUnits="userSpaceOnUse">
<stop stop-color="white" stop-opacity="0.12"/>
<stop offset="1" stop-color="white"/>
</linearGradient>
<linearGradient id="paint1_linear" x1="11.0299" y1="28.0003" x2="41.8487" y2="28.0003" gradientUnits="userSpaceOnUse">
<stop stop-color="white" stop-opacity="0.12"/>
<stop offset="1" stop-color="white"/>
</linearGradient>
<linearGradient id="paint2_linear" x1="40.5083" y1="38.0499" x2="16.3893" y2="38.0499" gradientUnits="userSpaceOnUse">
<stop stop-color="white" stop-opacity="0.12"/>
<stop offset="1" stop-color="white"/>
</linearGradient>
</defs>
</svg>
