<svg width="195" height="32" viewBox="0 0 195 32" fill="none" xmlns="http://www.w3.org/2000/svg">
<path d="M72.738 21.1367C72.4372 21.1367 72.1706 21.0638 71.9382 20.918C71.7058 21.0638 71.4893 21.1367 71.2888 21.1367C71.0928 21.1367 70.931 21.1185 70.8034 21.082C70.6758 21.0501 70.5642 21.0046 70.4685 20.9453C70.2725 20.8268 70.1745 20.6787 70.1745 20.501C70.1745 20.4098 70.1996 20.3301 70.2497 20.2617C70.35 20.3392 70.4776 20.3779 70.6325 20.3779C71.0381 20.3779 71.3184 20.2048 71.4734 19.8584V16.5156C71.4734 16.306 71.4301 16.151 71.3435 16.0508C71.2067 15.8822 70.972 15.7158 70.6394 15.5518C70.9493 15.4105 71.1498 15.2852 71.2409 15.1758C71.3959 14.998 71.4734 14.7975 71.4734 14.5742V11.6895C71.3184 11.3385 71.0381 11.1631 70.6325 11.1631C70.4776 11.1631 70.35 11.2018 70.2497 11.2793C70.1996 11.2109 70.1745 11.1335 70.1745 11.0469C70.1745 10.9557 70.1996 10.8714 70.2497 10.7939C70.3044 10.7165 70.3773 10.6504 70.4685 10.5957C70.6781 10.4681 70.9174 10.4043 71.1862 10.4043C71.4597 10.4043 71.7103 10.4795 71.9382 10.6299C72.1752 10.4795 72.4463 10.4043 72.7517 10.4043C73.057 10.4043 73.335 10.4932 73.5857 10.6709C74.0687 10.4932 74.627 10.4043 75.2605 10.4043C75.7299 10.4043 76.1309 10.4499 76.4636 10.541L77.072 10.7051C77.1449 10.7233 77.2155 10.7324 77.2839 10.7324C77.4115 10.7324 77.4753 10.6413 77.4753 10.459C77.4753 10.4134 77.4594 10.3359 77.4275 10.2266C77.5551 10.2038 77.7168 10.1924 77.9128 10.1924C78.1088 10.1924 78.2751 10.2585 78.4118 10.3906C78.5485 10.5182 78.6169 10.7051 78.6169 10.9512C78.6169 11.1927 78.5736 11.3704 78.487 11.4844C78.6101 11.6667 78.6716 11.89 78.6716 12.1543C78.6716 12.4141 78.5827 12.6328 78.405 12.8105C78.4597 12.9473 78.487 13.0817 78.487 13.2139C78.487 13.3415 78.4642 13.46 78.4187 13.5693C78.3776 13.6742 78.3252 13.763 78.2614 13.8359C78.1338 13.9681 78.0039 14.0342 77.8718 14.0342C77.6804 14.0342 77.5072 13.9932 77.3523 13.9111C77.4069 13.8018 77.4343 13.64 77.4343 13.4258C77.4343 12.9245 77.309 12.4847 77.0583 12.1064C76.7165 11.5869 76.2038 11.3271 75.5202 11.3271C75.1739 11.3271 74.8594 11.4115 74.5769 11.5801C74.2989 11.7487 74.1029 11.9902 73.989 12.3047V14.9502C74.1485 15.0505 74.2966 15.1006 74.4333 15.1006C74.5746 15.1006 74.6794 15.0983 74.7478 15.0938C74.8207 15.0892 74.8936 15.0801 74.9665 15.0664C75.1534 15.0391 75.2969 15.0026 75.3972 14.957C75.5886 14.8659 75.6843 14.6426 75.6843 14.2871C75.6843 14.0866 75.6364 13.9316 75.5407 13.8223C75.6319 13.7585 75.7458 13.7266 75.8825 13.7266C76.1879 13.7266 76.4089 13.8496 76.5456 14.0957C76.5957 14.1823 76.6208 14.278 76.6208 14.3828C76.6208 14.4876 76.5935 14.6175 76.5388 14.7725C76.7256 14.9867 76.8191 15.2419 76.8191 15.5381C76.8191 15.8298 76.7256 16.0827 76.5388 16.2969C76.5935 16.4518 76.6208 16.5931 76.6208 16.7207C76.6208 16.8438 76.5957 16.9622 76.5456 17.0762C76.4955 17.1901 76.434 17.2812 76.361 17.3496C76.2198 17.4772 76.0603 17.541 75.8825 17.541C75.7549 17.541 75.641 17.5046 75.5407 17.4316C75.6364 17.2721 75.6843 17.0853 75.6843 16.8711C75.6843 16.4473 75.5681 16.1852 75.3357 16.085C75.1306 16.0029 74.8959 15.9619 74.6316 15.9619C74.3672 15.9619 74.153 16.0098 73.989 16.1055V19.5234C74.2533 19.9883 74.7637 20.2207 75.5202 20.2207C76.377 20.2207 76.9603 19.9564 77.2702 19.4277C77.6303 18.8216 77.8103 18.1722 77.8103 17.4795C77.8103 17.279 77.792 17.124 77.7556 17.0146C77.8695 16.9007 77.988 16.8438 78.111 16.8438C78.2341 16.8438 78.3275 16.862 78.3913 16.8984C78.4551 16.9303 78.5121 16.9714 78.5622 17.0215C78.6716 17.1445 78.7263 17.2699 78.7263 17.3975L78.6853 17.7324C78.6853 17.819 78.7081 17.8896 78.7536 17.9443C78.8448 18.04 78.8903 18.1312 78.8903 18.2178C78.8903 18.2998 78.863 18.4001 78.8083 18.5186C78.9131 18.5778 79.0066 18.6667 79.0886 18.7852C79.1752 18.8991 79.2185 19.0176 79.2185 19.1406C79.2185 19.4004 79.1091 19.6328 78.8903 19.8379C78.986 19.9746 79.0339 20.1729 79.0339 20.4326C79.0339 20.6878 78.9587 20.9043 78.8083 21.082C78.6625 21.2643 78.4711 21.3555 78.2341 21.3555C78.1065 21.3555 77.9743 21.3418 77.8376 21.3145C77.8558 21.2142 77.865 21.1139 77.865 21.0137C77.865 20.804 77.7692 20.6992 77.5778 20.6992C77.3637 20.6992 77.1495 20.7425 76.9353 20.8291C76.4294 21.0342 75.8529 21.1367 75.2058 21.1367C74.5632 21.1367 74.0163 21.0524 73.5651 20.8838C73.3282 21.0524 73.0525 21.1367 72.738 21.1367ZM72.1296 19.1885C72.3575 19.1019 72.4828 18.8034 72.5056 18.293C72.5329 17.7826 72.5466 17.0762 72.5466 16.1738C72.5466 15.2715 72.5443 14.6722 72.5398 14.376C72.5398 14.0752 72.5375 13.8337 72.5329 13.6514C72.5192 13.1136 72.4668 12.79 72.3757 12.6807C72.2891 12.5667 72.2071 12.4915 72.1296 12.4551C72.1296 14.041 72.1023 14.9434 72.0476 15.1621C71.9838 15.3444 71.8288 15.4743 71.5827 15.5518C71.8562 15.6475 72.0111 15.7637 72.0476 15.9004C72.1023 16.1191 72.1296 16.9189 72.1296 18.2998V19.1885ZM73.8523 19.1201C73.8523 19.1338 73.8545 19.1452 73.8591 19.1543L73.8523 19.1201ZM95.2433 11.3135C95.1248 11.236 94.9835 11.1973 94.8194 11.1973C94.4959 11.1973 94.2042 11.375 93.9444 11.7305C93.2517 13.5762 92.894 14.5651 92.8712 14.6973C92.8484 14.8294 92.837 14.9251 92.837 14.9844C92.837 15.2669 92.992 15.4561 93.3019 15.5518C92.9646 15.6885 92.7322 15.8252 92.6046 15.9619C92.4041 16.1852 92.2241 16.527 92.0646 16.9873L90.8136 20.4053C90.5812 21.0661 90.4103 21.4329 90.3009 21.5059C90.2599 21.5286 90.212 21.54 90.1573 21.54C90.1026 21.54 90.0571 21.5241 90.0206 21.4922L87.7989 16.5225C87.7078 16.3083 87.5893 16.1442 87.4435 16.0303C87.2065 15.848 86.9034 15.6885 86.5343 15.5518C86.9308 15.333 87.1245 15.1302 87.1153 14.9434C87.1153 14.8568 87.0789 14.7178 87.006 14.5264L85.8097 11.4502C85.5681 11.2816 85.3471 11.1973 85.1466 11.1973C85.0008 11.1973 84.8686 11.236 84.7501 11.3135C84.7 11.277 84.6749 11.2087 84.6749 11.1084C84.6749 11.0081 84.6909 10.917 84.7228 10.835C84.7547 10.7484 84.8048 10.6732 84.8732 10.6094C85.019 10.4727 85.2286 10.4043 85.5021 10.4043C85.7755 10.4043 86.017 10.4772 86.2267 10.623C86.4591 10.4772 86.7303 10.4043 87.0401 10.4043C87.3546 10.4043 87.6258 10.4749 87.8536 10.6162C88.0952 10.4749 88.3162 10.4043 88.5167 10.4043C88.7172 10.4043 88.8813 10.4202 89.0089 10.4521C89.1365 10.4795 89.2482 10.5228 89.3439 10.582C89.5489 10.7005 89.656 10.8646 89.6651 11.0742C89.6651 11.2018 89.6401 11.2816 89.59 11.3135C89.4669 11.236 89.3416 11.1973 89.214 11.1973C88.9269 11.1973 88.7036 11.252 88.5441 11.3613L90.7862 17.7598L92.8917 11.6689C92.8689 11.514 92.8074 11.391 92.7071 11.2998C92.6114 11.2087 92.4633 11.1631 92.2628 11.1631C92.0623 11.1631 91.8959 11.2018 91.7638 11.2793C91.7182 11.2109 91.6954 11.1038 91.6954 10.958C91.6954 10.8122 91.7569 10.6846 91.88 10.5752C92.003 10.4613 92.1717 10.4043 92.3859 10.4043C92.6046 10.4043 92.7983 10.4567 92.9669 10.5615C93.1127 10.4567 93.295 10.4043 93.5138 10.4043C93.7325 10.4043 93.9125 10.4544 94.0538 10.5547C94.2543 10.4544 94.4549 10.4043 94.6554 10.4043C94.8559 10.4043 95.0154 10.4704 95.1339 10.6025C95.2569 10.7301 95.3185 10.8965 95.3185 11.1016C95.3185 11.2064 95.2934 11.277 95.2433 11.3135ZM92.8849 11.9629C92.8758 11.9902 92.8712 12.0085 92.8712 12.0176L92.8849 11.9629ZM87.3204 12.4551C87.2202 12.528 87.17 12.6237 87.17 12.7422C87.17 12.8561 87.1723 12.9427 87.1769 13.002C87.186 13.0612 87.2042 13.1387 87.2316 13.2344C87.2589 13.3255 87.2999 13.444 87.3546 13.5898L87.7306 14.5605C87.8217 14.7975 87.8719 14.9753 87.881 15.0938C87.9038 15.2943 87.7762 15.4469 87.4982 15.5518C87.685 15.5882 87.8377 15.6338 87.9562 15.6885C88.0792 15.7386 88.1886 15.8685 88.2843 16.0781C88.38 16.2832 88.5053 16.5794 88.6603 16.9668L89.2345 18.3613C89.4077 18.7852 89.5991 19.0404 89.8087 19.127C89.8679 19.1543 89.9272 19.1748 89.9864 19.1885L87.3204 12.4551ZM104.275 20.918C104.042 21.0638 103.778 21.1367 103.482 21.1367C103.186 21.1367 102.921 21.0638 102.689 20.918C102.457 21.0638 102.24 21.1367 102.04 21.1367C101.844 21.1367 101.682 21.1185 101.554 21.082C101.427 21.0501 101.315 21.0046 101.219 20.9453C101.023 20.8268 100.925 20.6787 100.925 20.501C100.925 20.4098 100.95 20.3301 101 20.2617C101.101 20.3392 101.228 20.3779 101.383 20.3779C101.789 20.3779 102.069 20.2048 102.224 19.8584V16.5156C102.224 16.306 102.181 16.151 102.094 16.0508C101.958 15.8822 101.723 15.7158 101.39 15.5518C101.7 15.4105 101.901 15.2852 101.992 15.1758C102.147 14.998 102.224 14.7975 102.224 14.5742V11.6895C102.069 11.3385 101.789 11.1631 101.383 11.1631C101.228 11.1631 101.101 11.2018 101 11.2793C100.95 11.2109 100.925 11.1335 100.925 11.0469C100.925 10.9557 100.95 10.8714 101 10.7939C101.055 10.7165 101.128 10.6504 101.219 10.5957C101.429 10.4681 101.668 10.4043 101.937 10.4043C102.21 10.4043 102.461 10.4795 102.689 10.6299C102.926 10.4795 103.19 10.4043 103.482 10.4043C103.774 10.4043 104.038 10.4795 104.275 10.6299C104.503 10.4795 104.717 10.4043 104.917 10.4043C105.118 10.4043 105.282 10.4225 105.41 10.459C105.537 10.4909 105.649 10.5365 105.745 10.5957C105.941 10.7142 106.039 10.8623 106.039 11.04C106.039 11.1312 106.014 11.2109 105.963 11.2793C105.863 11.2018 105.736 11.1631 105.581 11.1631C105.175 11.1631 104.895 11.3385 104.74 11.6895V14.5742C104.74 14.7975 104.788 14.9639 104.883 15.0732C105.034 15.251 105.264 15.4105 105.574 15.5518C105.241 15.7158 105.029 15.8503 104.938 15.9551C104.806 16.1191 104.74 16.306 104.74 16.5156V19.8584C104.895 20.2048 105.175 20.3779 105.581 20.3779C105.736 20.3779 105.863 20.3392 105.963 20.2617C106.014 20.3301 106.039 20.4098 106.039 20.501C106.039 20.5876 106.011 20.6696 105.957 20.7471C105.906 20.8245 105.836 20.8906 105.745 20.9453C105.535 21.0729 105.296 21.1367 105.027 21.1367C104.758 21.1367 104.507 21.0638 104.275 20.918ZM102.88 19.1885C103.108 19.1019 103.234 18.8034 103.256 18.293C103.284 17.7826 103.297 17.0762 103.297 16.1738C103.297 15.2715 103.295 14.6722 103.291 14.376C103.291 14.0752 103.288 13.8337 103.284 13.6514C103.27 13.1136 103.218 12.79 103.126 12.6807C103.04 12.5667 102.958 12.4915 102.88 12.4551C102.88 14.041 102.853 14.9434 102.798 15.1621C102.735 15.3444 102.58 15.4743 102.334 15.5518C102.607 15.6475 102.762 15.7637 102.798 15.9004C102.853 16.1191 102.88 16.9189 102.88 18.2998V19.1885ZM115.227 21.1367C114.927 21.1367 114.66 21.0638 114.428 20.918C114.195 21.0638 113.979 21.1367 113.778 21.1367C113.582 21.1367 113.42 21.1185 113.293 21.082C113.165 21.0501 113.054 21.0046 112.958 20.9453C112.762 20.8268 112.664 20.6787 112.664 20.501C112.664 20.4098 112.689 20.3301 112.739 20.2617C112.839 20.3392 112.967 20.3779 113.122 20.3779C113.528 20.3779 113.808 20.2048 113.963 19.8584V16.5156C113.963 16.306 113.92 16.151 113.833 16.0508C113.696 15.8822 113.462 15.7158 113.129 15.5518C113.439 15.4105 113.639 15.2852 113.73 15.1758C113.885 14.998 113.963 14.7975 113.963 14.5742V11.6895C113.808 11.3385 113.528 11.1631 113.122 11.1631C112.967 11.1631 112.839 11.2018 112.739 11.2793C112.689 11.2109 112.664 11.1335 112.664 11.0469C112.664 10.9557 112.689 10.8714 112.739 10.7939C112.794 10.7165 112.867 10.6504 112.958 10.5957C113.168 10.4681 113.407 10.4043 113.676 10.4043C113.949 10.4043 114.2 10.4795 114.428 10.6299C114.665 10.4795 114.929 10.4043 115.221 10.4043C115.512 10.4043 115.777 10.4795 116.014 10.6299C116.269 10.4795 116.501 10.4043 116.711 10.4043C116.92 10.4043 117.089 10.4225 117.217 10.459C117.344 10.4909 117.456 10.5365 117.552 10.5957C117.748 10.7142 117.846 10.8623 117.846 11.04C117.846 11.1312 117.821 11.2109 117.77 11.2793C117.67 11.2018 117.536 11.1631 117.367 11.1631C117.198 11.1631 117.028 11.2087 116.854 11.2998C116.686 11.3864 116.56 11.5186 116.478 11.6963V14.5742C116.478 14.7975 116.526 14.9639 116.622 15.0732C116.772 15.251 117.003 15.4105 117.312 15.5518C116.98 15.7158 116.768 15.8503 116.677 15.9551C116.545 16.1191 116.478 16.306 116.478 16.5156V19.5029C116.779 19.9814 117.155 20.2207 117.606 20.2207C118.723 20.2207 119.441 19.7467 119.76 18.7988C119.901 18.3796 119.972 17.9967 119.972 17.6504C119.972 17.2995 119.924 17.0648 119.828 16.9463C119.933 16.8597 120.04 16.8164 120.149 16.8164C120.263 16.8164 120.368 16.8392 120.464 16.8848C120.559 16.9303 120.646 16.9987 120.724 17.0898C120.883 17.2767 120.963 17.4977 120.963 17.7529C120.963 18.0081 120.942 18.2041 120.901 18.3408C121.111 18.514 121.216 18.7578 121.216 19.0723C121.216 19.3867 121.127 19.6419 120.949 19.8379C121.1 20.0293 121.175 20.2025 121.175 20.3574C121.175 20.5124 121.152 20.6468 121.106 20.7607C121.065 20.8701 121.006 20.9681 120.929 21.0547C120.755 21.2324 120.548 21.3213 120.307 21.3213C120.188 21.3213 120.079 21.2962 119.978 21.2461C119.997 21.1458 120.006 21.0456 120.006 20.9453C120.006 20.7357 119.91 20.6309 119.719 20.6309C119.577 20.6309 119.381 20.6878 119.131 20.8018C118.648 21.0251 118.096 21.1367 117.476 21.1367C116.861 21.1367 116.38 21.057 116.034 20.8975C115.797 21.057 115.528 21.1367 115.227 21.1367ZM114.619 19.1885C114.847 19.1019 114.972 18.8034 114.995 18.293C115.022 17.7826 115.036 17.0762 115.036 16.1738C115.036 15.2715 115.034 14.6722 115.029 14.376C115.029 14.0752 115.027 13.8337 115.022 13.6514C115.009 13.1136 114.956 12.79 114.865 12.6807C114.779 12.5667 114.697 12.4915 114.619 12.4551C114.619 14.041 114.592 14.9434 114.537 15.1621C114.473 15.3444 114.318 15.4743 114.072 15.5518C114.346 15.6475 114.501 15.7637 114.537 15.9004C114.592 16.1191 114.619 16.9189 114.619 18.2998V19.1885ZM139.088 21.1367C138.787 21.1367 138.52 21.0638 138.288 20.918C138.055 21.0638 137.839 21.1367 137.638 21.1367C137.442 21.1367 137.281 21.1185 137.153 21.082C137.025 21.0501 136.914 21.0046 136.818 20.9453C136.622 20.8268 136.524 20.6787 136.524 20.501C136.524 20.4098 136.549 20.3301 136.599 20.2617C136.7 20.3392 136.827 20.3779 136.982 20.3779C137.388 20.3779 137.668 20.2048 137.823 19.8584V16.5156C137.823 16.306 137.78 16.151 137.693 16.0508C137.556 15.8822 137.322 15.7158 136.989 15.5518C137.299 15.4105 137.499 15.2852 137.591 15.1758C137.745 14.998 137.823 14.7975 137.823 14.5742V11.6895C137.668 11.3385 137.388 11.1631 136.982 11.1631C136.827 11.1631 136.7 11.2018 136.599 11.2793C136.549 11.2109 136.524 11.1335 136.524 11.0469C136.524 10.9557 136.549 10.8714 136.599 10.7939C136.654 10.7165 136.727 10.6504 136.818 10.5957C137.028 10.4681 137.267 10.4043 137.536 10.4043C137.809 10.4043 138.06 10.4795 138.288 10.6299C138.525 10.4795 138.775 10.4043 139.04 10.4043C139.309 10.4043 139.557 10.4613 139.785 10.5752C140.323 10.4157 140.822 10.3359 141.282 10.3359C141.742 10.3359 142.15 10.361 142.506 10.4111C142.861 10.4613 143.201 10.5501 143.524 10.6777C143.848 10.8008 144.151 10.9671 144.433 11.1768C144.72 11.3864 144.976 11.6484 145.199 11.9629C145.673 12.6237 145.976 13.4987 146.108 14.5879C146.135 14.8568 146.192 15.0459 146.279 15.1553C146.425 15.333 146.623 15.4652 146.874 15.5518C146.609 15.652 146.436 15.7546 146.354 15.8594C146.217 16.0326 146.135 16.2513 146.108 16.5156C145.958 18.0286 145.45 19.1953 144.584 20.0156C143.75 20.8086 142.667 21.2051 141.337 21.2051C140.803 21.2051 140.325 21.123 139.901 20.959C139.696 21.0775 139.425 21.1367 139.088 21.1367ZM140.339 19.9268C140.557 20.1729 140.847 20.2959 141.207 20.2959C141.571 20.2959 141.886 20.2253 142.15 20.084C142.419 19.9382 142.645 19.7148 142.827 19.4141C143.196 18.7988 143.381 17.8327 143.381 16.5156C143.381 16.2285 143.335 16.0326 143.244 15.9277C143.121 15.7819 142.918 15.6566 142.635 15.5518C142.913 15.4561 143.093 15.3604 143.175 15.2646C143.312 15.1006 143.381 14.8932 143.381 14.6426C143.381 14.3874 143.362 14.1344 143.326 13.8838C143.289 13.6331 143.23 13.3848 143.148 13.1387C143.071 12.8926 142.97 12.6579 142.847 12.4346C142.729 12.2067 142.585 12.0062 142.417 11.833C142.048 11.4548 141.612 11.2656 141.111 11.2656C140.956 11.2656 140.806 11.2702 140.66 11.2793C140.514 11.2839 140.407 11.3271 140.339 11.4092V19.9268ZM143.736 12.4551C144.078 13.4076 144.249 14.2233 144.249 14.9023C144.249 15.1348 144.228 15.2715 144.187 15.3125C144.151 15.3535 144.11 15.39 144.064 15.4219C143.982 15.4766 143.893 15.5199 143.798 15.5518C144.071 15.6748 144.215 15.7933 144.228 15.9072C144.237 15.9574 144.242 16.0075 144.242 16.0576V16.2285C144.242 16.8438 144.178 17.4408 144.05 18.0195C143.923 18.5938 143.827 18.9834 143.763 19.1885C143.968 19.1292 144.117 18.9948 144.208 18.7852C144.303 18.571 144.383 18.3431 144.447 18.1016C144.515 17.8555 144.57 17.5957 144.611 17.3223C144.702 16.7617 144.748 16.1761 144.748 15.5654C144.748 14.4717 144.586 13.5898 144.262 12.9199C144.121 12.6556 143.946 12.5007 143.736 12.4551ZM138.479 19.1885C138.707 19.1019 138.832 18.8034 138.855 18.293C138.883 17.7826 138.896 17.0762 138.896 16.1738C138.896 15.2715 138.894 14.6722 138.889 14.376C138.889 14.0752 138.887 13.8337 138.883 13.6514C138.869 13.1136 138.816 12.79 138.725 12.6807C138.639 12.5667 138.557 12.4915 138.479 12.4551C138.479 14.041 138.452 14.9434 138.397 15.1621C138.333 15.3444 138.178 15.4743 137.932 15.5518C138.206 15.6475 138.361 15.7637 138.397 15.9004C138.452 16.1191 138.479 16.9189 138.479 18.2998V19.1885ZM153.294 20.9521C153.125 21.0752 152.932 21.1367 152.713 21.1367C152.499 21.1367 152.328 21.082 152.2 20.9727C152.068 20.8587 152.002 20.7288 152.002 20.583C152.002 20.4372 152.025 20.3301 152.07 20.2617C152.203 20.3392 152.364 20.3779 152.556 20.3779C152.752 20.3779 152.898 20.3529 152.993 20.3027C153.094 20.248 153.189 20.1751 153.28 20.084L154.251 17.2061L154.388 16.7344C154.429 16.5931 154.449 16.4632 154.449 16.3447C154.449 15.93 154.253 15.6657 153.861 15.5518C154.221 15.415 154.474 15.2669 154.62 15.1074C154.848 14.8568 155.028 14.5264 155.16 14.1162L155.912 11.5938C155.766 11.3978 155.593 11.2998 155.393 11.2998C155.192 11.2998 155.005 11.3431 154.832 11.4297C154.787 11.3477 154.764 11.2565 154.764 11.1562C154.764 11.0514 154.784 10.9535 154.825 10.8623C154.871 10.7712 154.932 10.6914 155.01 10.623C155.183 10.4772 155.429 10.4043 155.748 10.4043C156.067 10.4043 156.338 10.5 156.562 10.6914C156.789 10.5 157.072 10.4043 157.409 10.4043C157.751 10.4043 158.022 10.4954 158.223 10.6777C158.514 10.4954 158.811 10.4043 159.111 10.4043C159.412 10.4043 159.645 10.4613 159.809 10.5752C159.977 10.6891 160.062 10.8441 160.062 11.04C160.062 11.1312 160.034 11.2109 159.98 11.2793C159.875 11.2018 159.752 11.1631 159.61 11.1631C159.305 11.1631 159.107 11.3704 159.016 11.7852L159.891 14.5811C160 14.932 160.274 15.2054 160.711 15.4014C160.834 15.4561 160.959 15.5062 161.087 15.5518C160.631 15.7021 160.403 15.9277 160.403 16.2285C160.403 16.3424 160.422 16.4427 160.458 16.5293L161.764 20.0293C161.964 20.2389 162.167 20.3438 162.372 20.3438C162.577 20.3438 162.737 20.305 162.851 20.2275C162.901 20.264 162.926 20.3324 162.926 20.4326C162.926 20.5329 162.91 20.6263 162.878 20.7129C162.846 20.7949 162.796 20.8678 162.728 20.9316C162.582 21.0684 162.368 21.1367 162.085 21.1367C161.803 21.1367 161.556 21.0592 161.347 20.9043C161.11 21.0592 160.841 21.1367 160.54 21.1367C160.244 21.1367 159.989 21.0615 159.775 20.9111C159.569 21.0615 159.328 21.1367 159.05 21.1367C158.772 21.1367 158.542 21.0798 158.359 20.9658C158.177 20.8473 158.081 20.681 158.072 20.4668C158.072 20.3392 158.097 20.2594 158.148 20.2275C158.271 20.305 158.396 20.3438 158.524 20.3438C158.792 20.3438 158.982 20.2891 159.091 20.1797L158.571 18.4365H154.873L154.422 19.9473C154.609 20.2344 154.834 20.3779 155.099 20.3779C155.368 20.3779 155.568 20.3392 155.7 20.2617C155.75 20.3438 155.775 20.4577 155.775 20.6035C155.775 20.7448 155.705 20.8701 155.564 20.9795C155.422 21.0843 155.24 21.1367 155.017 21.1367C154.793 21.1367 154.588 21.0798 154.401 20.9658C154.237 21.0798 154.048 21.1367 153.834 21.1367C153.624 21.1367 153.444 21.0752 153.294 20.9521ZM158.291 17.5137L156.705 12.2432L155.147 17.5137H158.291ZM159.597 19.1885C159.679 19.1885 159.72 19.0973 159.72 18.915C159.72 18.596 159.672 18.2861 159.576 17.9854L159.317 17.1855C159.134 16.584 159.043 16.2057 159.043 16.0508C159.039 15.7956 159.15 15.627 159.378 15.5449C159.064 15.4811 158.872 15.3831 158.804 15.251C158.772 15.1963 158.745 15.153 158.722 15.1211C158.704 15.0892 158.683 15.0527 158.66 15.0117C158.642 14.9661 158.619 14.9092 158.592 14.8408C158.565 14.7725 158.528 14.6745 158.483 14.5469L158.059 13.2686C157.958 12.9495 157.81 12.708 157.614 12.5439C157.555 12.4938 157.5 12.4642 157.45 12.4551C157.756 13.5579 157.956 14.2643 158.052 14.5742C158.713 16.6068 159.109 17.8122 159.241 18.1904L159.597 19.1885ZM161.613 19.8037L161.627 19.8447L161.613 19.8037ZM170.454 20.7334C170.089 21.098 169.743 21.2803 169.415 21.2803C169.205 21.2803 169.064 21.2028 168.991 21.0479C169.096 20.9202 169.148 20.7288 169.148 20.4736V20.3711C169.148 20.3438 169.146 20.3187 169.141 20.2959C168.913 20.0908 168.799 19.8493 168.799 19.5713C168.799 19.2887 168.931 19.0016 169.196 18.71C169.118 18.555 169.08 18.391 169.08 18.2178C169.08 18.04 169.105 17.876 169.155 17.7256C169.209 17.5706 169.282 17.4362 169.374 17.3223C169.565 17.0716 169.752 16.9463 169.934 16.9463C170.121 16.9463 170.253 17.0192 170.331 17.165C170.167 17.3382 170.084 17.6094 170.084 17.9785C170.084 18.3477 170.137 18.6689 170.242 18.9424C170.351 19.2158 170.504 19.4505 170.7 19.6465C171.119 20.0749 171.654 20.2891 172.306 20.2891C172.744 20.2891 173.115 20.1637 173.42 19.9131C173.749 19.6442 173.913 19.2773 173.913 18.8125C173.913 18.4844 173.835 18.2178 173.68 18.0127C173.439 17.6937 173.06 17.3564 172.545 17.001C172.149 16.723 171.832 16.584 171.595 16.584C171.354 16.584 171.087 16.682 170.795 16.8779C170.873 16.6455 170.912 16.429 170.912 16.2285C170.912 16.1829 170.868 16.1237 170.782 16.0508L170.529 15.8252C169.731 15.0915 169.26 14.4102 169.114 13.7812C169.064 13.5625 169.039 13.2891 169.039 12.9609C169.039 12.6283 169.118 12.2933 169.278 11.9561C169.442 11.6143 169.665 11.3249 169.948 11.0879C170.536 10.5866 171.283 10.3359 172.19 10.3359C172.741 10.3359 173.247 10.4248 173.708 10.6025C173.903 10.68 174.127 10.7188 174.377 10.7188C174.482 10.7188 174.576 10.7142 174.658 10.7051C174.744 10.6914 174.82 10.6436 174.883 10.5615C174.943 10.4749 174.972 10.3975 174.972 10.3291C174.972 10.2607 174.963 10.2038 174.945 10.1582C174.977 10.1445 175.02 10.1377 175.075 10.1377C175.134 10.1377 175.198 10.1582 175.266 10.1992C175.334 10.2357 175.396 10.2881 175.451 10.3564C175.574 10.5114 175.635 10.6868 175.635 10.8828C175.635 11.0742 175.581 11.2201 175.471 11.3203C175.626 11.457 175.704 11.6689 175.704 11.9561C175.704 12.2386 175.608 12.4756 175.417 12.667C175.453 12.79 175.471 12.9017 175.471 13.002C175.471 13.0977 175.453 13.1911 175.417 13.2822C175.385 13.3688 175.339 13.444 175.28 13.5078C175.148 13.6491 175.022 13.7197 174.904 13.7197C174.717 13.7197 174.56 13.6878 174.432 13.624C174.51 13.4417 174.548 13.2458 174.548 13.0361C174.548 12.8265 174.5 12.6123 174.405 12.3936C174.314 12.1702 174.184 11.9766 174.015 11.8125C173.66 11.4753 173.195 11.3066 172.621 11.3066C172.256 11.3066 171.958 11.4183 171.725 11.6416C171.506 11.8512 171.397 12.1042 171.397 12.4004C171.397 12.6237 171.452 12.8105 171.561 12.9609C171.752 13.2207 172.056 13.4896 172.47 13.7676L172.798 13.9863C172.981 14.1003 173.104 14.1572 173.167 14.1572C173.231 14.1572 173.295 14.1504 173.359 14.1367C173.423 14.123 173.493 14.1048 173.571 14.082C173.735 14.0273 173.894 13.9499 174.049 13.8496L173.96 14.2324C173.933 14.36 173.919 14.4535 173.919 14.5127C173.919 14.6084 173.967 14.695 174.063 14.7725C174.915 15.5107 175.485 16.1283 175.772 16.625C176.023 17.0579 176.148 17.5251 176.148 18.0264C176.148 18.5277 176.066 18.9583 175.902 19.3184C175.738 19.6784 175.499 19.9974 175.184 20.2754C174.491 20.8952 173.591 21.2051 172.484 21.2051C171.705 21.2051 171.028 21.0479 170.454 20.7334ZM169.989 12.4551C169.816 12.528 169.729 12.7171 169.729 13.0225C169.729 13.6468 170.146 14.3327 170.98 15.0801L171.39 15.4492C171.531 15.5768 171.593 15.6748 171.575 15.7432C171.561 15.8115 171.547 15.8662 171.534 15.9072C171.525 15.9482 171.513 15.987 171.5 16.0234C171.486 16.0599 171.477 16.0872 171.472 16.1055C171.632 16.0098 171.762 15.9619 171.862 15.9619C172.062 15.9619 172.251 16.0166 172.429 16.126C173.309 16.6729 173.906 17.1605 174.22 17.5889C174.448 17.9033 174.567 18.2952 174.576 18.7646C174.576 18.9333 174.564 19.0745 174.542 19.1885C174.783 19.0335 174.904 18.7874 174.904 18.4502C174.904 18.1221 174.858 17.8691 174.767 17.6914C174.681 17.5137 174.578 17.3564 174.459 17.2197C174.341 17.0785 174.186 16.9258 173.995 16.7617C173.808 16.5977 173.575 16.4199 173.297 16.2285L172.327 15.5654C171.529 15.0413 170.923 14.4876 170.508 13.9043C170.144 13.3893 169.971 12.9062 169.989 12.4551ZM186.034 20.9248C185.806 21.0661 185.549 21.1367 185.262 21.1367C184.975 21.1367 184.728 21.0638 184.523 20.918C184.291 21.0638 184.077 21.1367 183.881 21.1367C183.685 21.1367 183.523 21.1185 183.395 21.082C183.268 21.0501 183.158 21.0046 183.067 20.9453C182.867 20.8268 182.767 20.6787 182.767 20.501C182.767 20.4098 182.792 20.3301 182.842 20.2617C182.942 20.3392 183.07 20.3779 183.225 20.3779C183.63 20.3779 183.91 20.2048 184.065 19.8584V16.5156C184.065 16.1602 183.888 15.8913 183.532 15.709L183.231 15.5518C183.637 15.3649 183.892 15.1621 183.997 14.9434C184.043 14.8431 184.065 14.7201 184.065 14.5742V11.6895C183.91 11.3385 183.63 11.1631 183.225 11.1631C183.07 11.1631 182.942 11.2018 182.842 11.2793C182.792 11.2109 182.767 11.1335 182.767 11.0469C182.767 10.9557 182.792 10.8714 182.842 10.7939C182.896 10.7165 182.972 10.6504 183.067 10.5957C183.272 10.4681 183.507 10.4043 183.771 10.4043C184.04 10.4043 184.291 10.4772 184.523 10.623C184.728 10.4772 184.975 10.4043 185.262 10.4043C185.553 10.4043 185.811 10.4772 186.034 10.623C186.248 10.4772 186.488 10.4043 186.752 10.4043C187.139 10.4043 187.415 10.5342 187.579 10.7939C187.634 10.876 187.661 10.9626 187.661 11.0537C187.661 11.1449 187.634 11.2201 187.579 11.2793C187.479 11.2018 187.353 11.1631 187.203 11.1631C186.852 11.1631 186.617 11.334 186.499 11.6758V15.2852H189.732V11.6758C189.614 11.334 189.379 11.1631 189.028 11.1631C188.878 11.1631 188.753 11.2018 188.652 11.2793C188.598 11.2201 188.57 11.1449 188.57 11.0537C188.57 10.9626 188.595 10.876 188.645 10.7939C188.7 10.7119 188.768 10.6413 188.851 10.582C189.024 10.4635 189.233 10.4043 189.479 10.4043C189.744 10.4043 189.983 10.4772 190.197 10.623C190.43 10.4772 190.687 10.4043 190.97 10.4043C191.257 10.4043 191.503 10.4772 191.708 10.623C191.931 10.4772 192.143 10.4043 192.344 10.4043C192.544 10.4043 192.708 10.4225 192.836 10.459C192.963 10.4909 193.075 10.5365 193.171 10.5957C193.367 10.7142 193.465 10.8623 193.465 11.04C193.465 11.1312 193.44 11.2109 193.39 11.2793C193.289 11.2018 193.162 11.1631 193.007 11.1631C192.601 11.1631 192.321 11.3385 192.166 11.6895V14.5742C192.166 14.9297 192.341 15.2054 192.692 15.4014C192.793 15.4561 192.895 15.5062 193 15.5518C192.726 15.6839 192.542 15.791 192.446 15.873C192.259 16.0462 192.166 16.2604 192.166 16.5156V19.8584C192.321 20.2048 192.601 20.3779 193.007 20.3779C193.162 20.3779 193.289 20.3392 193.39 20.2617C193.44 20.3301 193.465 20.4098 193.465 20.501C193.465 20.5876 193.437 20.6696 193.383 20.7471C193.333 20.8245 193.262 20.8906 193.171 20.9453C192.961 21.0729 192.72 21.1367 192.446 21.1367C192.177 21.1367 191.931 21.0638 191.708 20.918C191.503 21.0638 191.257 21.1367 190.97 21.1367C190.687 21.1367 190.43 21.0638 190.197 20.918C189.983 21.0638 189.744 21.1367 189.479 21.1367C189.092 21.1367 188.814 21.0068 188.645 20.7471C188.595 20.665 188.57 20.5785 188.57 20.4873C188.57 20.3962 188.598 20.321 188.652 20.2617C188.753 20.3392 188.878 20.3779 189.028 20.3779C189.379 20.3779 189.614 20.207 189.732 19.8652V16.2627H186.499V19.8652C186.617 20.207 186.852 20.3779 187.203 20.3779C187.353 20.3779 187.479 20.3392 187.579 20.2617C187.634 20.321 187.661 20.3962 187.661 20.4873C187.661 20.5785 187.634 20.665 187.579 20.7471C187.529 20.8291 187.461 20.8997 187.374 20.959C187.21 21.0775 187.003 21.1367 186.752 21.1367C186.492 21.1367 186.253 21.0661 186.034 20.9248ZM190.3 14.0889C190.295 14.5765 190.293 15.3854 190.293 16.5156C190.293 17.6458 190.309 18.3112 190.341 18.5117C190.4 18.8945 190.518 19.1201 190.696 19.1885V18.2998C190.696 17.0876 190.705 16.404 190.724 16.249C190.742 16.0895 190.76 15.9779 190.778 15.9141C190.819 15.7546 190.958 15.6338 191.195 15.5518C190.986 15.488 190.847 15.3581 190.778 15.1621C190.724 14.9434 190.696 14.041 190.696 12.4551C190.518 12.5371 190.409 12.7012 190.368 12.9473C190.327 13.2161 190.304 13.5967 190.3 14.0889ZM184.722 19.1885C184.94 19.1019 185.063 18.8034 185.091 18.293C185.114 17.7826 185.125 17.0762 185.125 16.1738C185.125 15.2715 185.123 14.6722 185.118 14.376C185.118 14.0752 185.116 13.8337 185.111 13.6514C185.098 13.1182 185.047 12.7946 184.961 12.6807C184.879 12.5667 184.799 12.4915 184.722 12.4551C184.722 14.041 184.694 14.9434 184.64 15.1621C184.576 15.3444 184.421 15.4743 184.175 15.5518C184.448 15.6475 184.603 15.7637 184.64 15.9004C184.694 16.1191 184.722 16.9189 184.722 18.2998V19.1885Z" fill="white"/>
<path d="M5.27865 9.14286L0 0H26.1089C32.4915 0 38.0013 3.73726 40.5692 9.14286H5.27865Z" fill="url(#paint0_linear)"/>
<path d="M11.8768 20.5714L6.59814 11.4286H41.4462C41.8773 12.8771 42.1087 14.4115 42.1087 16C42.1087 17.5885 41.8773 19.123 41.4462 20.5714H11.8768Z" fill="url(#paint1_linear)"/>
<path d="M18.4748 32L13.1963 22.8571H40.5689C38.001 28.2627 32.4912 32 26.1086 32H18.4748Z" fill="url(#paint2_linear)"/>
<path d="M41.9048 14.4762H50.2857C51.6251 14.4762 52.7627 15.3402 53.1715 16.5413C53.3495 17.0642 52.8856 17.5238 52.3334 17.5238H41.9048V14.4762Z" fill="white"/>
<defs>
<linearGradient id="paint0_linear" x1="40.381" y1="4.57143" x2="-5.54981e-08" y2="4.57143" gradientUnits="userSpaceOnUse">
<stop stop-color="white" stop-opacity="0.12"/>
<stop offset="1" stop-color="white"/>
</linearGradient>
<linearGradient id="paint1_linear" x1="6.85698" y1="16" x2="41.9046" y2="16" gradientUnits="userSpaceOnUse">
<stop stop-color="white" stop-opacity="0.12"/>
<stop offset="1" stop-color="white"/>
</linearGradient>
<linearGradient id="paint2_linear" x1="40.3806" y1="27.4286" x2="12.9521" y2="27.4286" gradientUnits="userSpaceOnUse">
<stop stop-color="white" stop-opacity="0.12"/>
<stop offset="1" stop-color="white"/>
</linearGradient>
</defs>
</svg>
